# xmcd
#
# Track frame offsets: 
#        150
#        17819
#        31524
#        49503
#        65960
#        84131
#        97781
#        116091
#        135188
#        152958
#        169847
#        185562
#        203719
#        216989
#        232659
#        249701
#        264681
#        281833
#        299889
#        318220
#
# Disc length: 4423 seconds
#
# Revision: 0
# Processed by: cddbd v1.5.2PL0 Copyright (c) Steve Scherf et al.
# Submitted via: ExactAudioCopy v0.99pb4
#
DISCID=1d114514
DTITLE=Various Artist - HP200947
DYEAR=2009
DGENRE=Top 40
TTITLE0=Lareau - Don't Let Me Go
TTITLE1=Cataracs - Club Love [Radio Edit]
TTITLE2=Chris Brown - Crawl
TTITLE3=Game - Big Money
TTITLE4=B.G. feat T.I. - For A Minute
TTITLE5=50 Cent - Get It Hot [Xtra Clean]
TTITLE6=Timbaland feat Drake - Say Something
TTITLE7=Jagged Edge feat Trina and Gucci Mane - Tip Of My Tongue
TTITLE8=Zac Brown Band - Toes [Rick Conner 'Toes In The Sand' Edit]
TTITLE9=Jimmy Wayne feat Daryl Hall and John Oates - Sara Smile
TTITLE10=Clay Walker - She Won't Be Lonely Long
TTITLE11=Mallory Hope - Love Lives On
TTITLE12=Halestorm - It's Not You [Album Version]
TTITLE13=Chevelle - Letter From A Thief
TTITLE14=Saosin - Changing [Radio Edit]
TTITLE15=Crash Kings - Mountain Man
TTITLE16=AFI - Beautiful Thieves
TTITLE17=Lady Gaga - Bad Romance [Bimbo Jones Clean Radio Edit]
TTITLE18=Jason Derulo - Whatcha Say [Klubjumper Radio Edit]
TTITLE19=Remedy Drive - Heartbeat
EXTD=
EXTT0=
EXTT1=
EXTT2=
EXTT3=
EXTT4=
EXTT5=
EXTT6=
EXTT7=
EXTT8=
EXTT9=
EXTT10=
EXTT11=
EXTT12=
EXTT13=
EXTT14=
EXTT15=
EXTT16=
EXTT17=
EXTT18=
EXTT19=
PLAYORDER=
